<?xml version="1.0" encoding="utf-8"?>
<!-- Generator: Adobe Illustrator 22.0.1, SVG Export Plug-In . SVG Version: 6.00 Build 0)  -->
<svg version="1.1" id="Capa_1" xmlns="http://www.w3.org/2000/svg" xmlns:xlink="http://www.w3.org/1999/xlink" x="0px" y="0px"
	 viewBox="0 0 249.5 254.5" style="enable-background:new 0 0 249.5 254.5;" xml:space="preserve">
<style type="text/css">
	.st0{fill:#D1774A;}
	.st1{fill:#FFFFFF;}
	.st2{fill:#373737;}
</style>
<g>
	
		<ellipse transform="matrix(0.7071 -0.7071 0.7071 0.7071 -53.4409 125.4822)" class="st0" cx="124.7" cy="127.3" rx="103.7" ry="103.7"/>
	<g>
		<g>
			
				<rect x="96.6" y="134" transform="matrix(0.707 -0.7072 0.7072 0.707 -66.0177 120.2927)" class="st1" width="31.2" height="11.6"/>
			<path class="st2" d="M82.1,181.8c-0.8,0.8-2,0.9-2.7,0.2l-9.3-9.3c-0.7-0.7-0.6-1.9,0.2-2.7l29.4-29.4c0.8-0.8,2-0.9,2.7-0.2
				l9.3,9.3c0.7,0.7,0.6,1.9-0.2,2.7L82.1,181.8z"/>
		</g>
		<g>
			<circle class="st1" cx="143.1" cy="108.9" r="32"/>
			<path class="st2" d="M169.2,82.8c-14.4-14.4-37.7-14.4-52.1,0c-14.4,14.4-14.4,37.7,0,52.1c14.4,14.4,37.7,14.4,52.1,0
				C183.6,120.5,183.5,97.2,169.2,82.8z M124,128c-10.6-10.6-10.6-27.7,0-38.3c10.6-10.6,27.7-10.6,38.3,0
				c10.6,10.6,10.6,27.7,0,38.3C151.7,138.6,134.5,138.6,124,128z"/>
		</g>
	</g>
</g>
</svg>
