<?xml version="1.0" encoding="utf-8"?>
<!-- Generator: Adobe Illustrator 22.0.1, SVG Export Plug-In . SVG Version: 6.00 Build 0)  -->
<svg version="1.1" id="Capa_1" xmlns="http://www.w3.org/2000/svg" xmlns:xlink="http://www.w3.org/1999/xlink" x="0px" y="0px"
	 viewBox="0 0 249.5 254.5" style="enable-background:new 0 0 249.5 254.5;" xml:space="preserve">
<style type="text/css">
	.st0{fill:#D3DFDA;}
	.st1{fill:#51A5A4;}
	.st2{fill:#373737;}
</style>
<g>
	
		<ellipse transform="matrix(8.391680e-02 -0.9965 0.9965 8.391680e-02 -12.5198 240.8816)" class="st0" cx="124.8" cy="127.3" rx="103.7" ry="103.7"/>
	<g>
		<g>
			<polygon class="st1" points="68.9,141.9 77.5,128.5 86,115.2 92.5,123.4 99,131.7 83.9,136.8 			"/>
			<path class="st1" d="M108.8,72.4c-21.5,0-39,14.5-39,32.5s17.5,32.5,39,32.5s39-14.5,39-32.5S130.3,72.4,108.8,72.4z M90.2,110.1
				c-2.9,0-5.2-2.3-5.2-5.2s2.3-5.2,5.2-5.2c2.9,0,5.2,2.3,5.2,5.2S93.1,110.1,90.2,110.1z M108.8,110.1c-2.9,0-5.2-2.3-5.2-5.2
				s2.3-5.2,5.2-5.2c2.9,0,5.2,2.3,5.2,5.2S111.7,110.1,108.8,110.1z M127.4,110.1c-2.9,0-5.2-2.3-5.2-5.2s2.3-5.2,5.2-5.2
				c2.9,0,5.2,2.3,5.2,5.2S130.3,110.1,127.4,110.1z"/>
		</g>
		<g>
			<polygon class="st2" points="180.6,182.1 172,168.7 163.5,155.3 157,163.6 150.5,171.8 165.6,177 			"/>
			<path class="st2" d="M101.7,145c0,17.9,17.5,32.5,39,32.5s39-14.5,39-32.5c0-17.9-17.5-32.5-39-32.5S101.7,127.1,101.7,145z
				 M154.1,145c0-2.9,2.3-5.2,5.2-5.2c2.9,0,5.2,2.3,5.2,5.2s-2.3,5.2-5.2,5.2C156.4,150.3,154.1,147.9,154.1,145z M135.5,145
				c0-2.9,2.3-5.2,5.2-5.2c2.9,0,5.2,2.3,5.2,5.2s-2.3,5.2-5.2,5.2C137.8,150.3,135.5,147.9,135.5,145z M116.8,145
				c0-2.9,2.3-5.2,5.2-5.2c2.9,0,5.2,2.3,5.2,5.2s-2.3,5.2-5.2,5.2C119.2,150.3,116.8,147.9,116.8,145z"/>
		</g>
	</g>
</g>
</svg>
